PathFileType	4	(X/Y/Z)	Patient4_TMGait_0pt2_01_left_18.trc.trc
DataRate	CameraRate	NumFrames	NumMarkers	Units	OrigDataRate	OrigDataStartFrame	OrigNumFrames
43.343653250774	43.343653250774	7	33	mm	43.343653250774	18	       141
Frame#	Time	Sacral			L.Shoulder			Chest			R.Shoulder			Neck			R.ASIS			L.ASIS			R.Thigh.Superior			R.Thigh.Lateral			R.Thigh.Inferior			R.Patella			L.Thigh.Superior			L.Thigh.Lateral			L.Thigh.Inferior			L.Patella			L.Shank.Superior			L.Shank.Lateral			L.Shank.Inferior			R.Shank.Superior			R.Shank.Lateral			R.Shank.Inferior			R.Heel			R.Midfoot.Superior			R.Midfoot.Lateral			R.Toe			L.Heel			L.Midfoot.Lateral			L.Midfoot.Superior			L.Toe			L.Elbow			L.Wrist			R.Elbow			R.Wrist			
		X1	Y1	Z1	X2	Y2	Z2	X3	Y3	Z3	X4	Y4	Z4	X5	Y5	Z5	X6	Y6	Z6	X7	Y7	Z7	X8	Y8	Z8	X9	Y9	Z9	X10	Y10	Z10	X11	Y11	Z11	X12	Y12	Z12	X13	Y13	Z13	X14	Y14	Z14	X15	Y15	Z15	X16	Y16	Z16	X17	Y17	Z17	X18	Y18	Z18	X19	Y19	Z19	X20	Y20	Z20	X21	Y21	Z21	X22	Y22	Z22	X23	Y23	Z23	X24	Y24	Z24	X25	Y25	Z25	X26	Y26	Z26	X27	Y27	Z27	X28	Y28	Z28	X29	Y29	Z29	X30	Y30	Z30	X31	Y31	Z31	X32	Y32	Z32	X33	Y33	Z33	

18	41.822214285714	650.902437946757	1006.272362480807	603.097088249588	807.295691656043	1419.350368992297	385.445737432672	933.645976172162	1355.327953885653	531.094324030613	883.084765074537	1439.889043672206	711.044640914315	814.114675139900	1488.273403391015	538.734567310168	889.410563172948	930.526450359889	687.670368812973	843.306852496700	962.672089228058	417.563008916344	911.779481917443	726.113080985233	637.218751530731	832.000108161847	615.337550982443	699.468922719484	892.267793851701	565.645281291695	605.991106771383	886.050040458378	473.626938005335	607.605350863215	920.287504179415	773.379525139740	438.394195984247	865.132362250625	651.135454244228	354.987569423658	962.511405968639	586.255769946232	416.738322325921	981.858995400636	517.850090350587	410.421729180763	959.429179773844	446.791625846092	390.388840914582	883.283577518314	331.394537962777	321.099128707475	955.119775283780	217.191468168323	369.479070922482	841.887661971069	388.373571534059	613.631269037384	759.473456382722	293.268676943344	676.220900358746	778.407488729313	197.901245624063	605.387277159332	618.787170928241	44.886156909772	578.268907241838	792.428606616352	96.077028855789	610.379659230313	703.315203696280	37.550643019928	650.711268927977	911.278456128645	40.848129568404	637.430662779936	848.070387626986	46.915852673418	383.925880753231	929.284072758033	47.724693435429	311.244004697947	1006.658278994414	115.207998854580	342.331517108447	1138.273465982318	72.554844568643	325.294190494429	680.461380851801	1083.502984232654	308.111426894144	662.668553276431	826.449264126764	349.691411926119	1091.613576365905	1197.628643039033	845.609890603959	1318.631845977480	1279.198831182476	760.589992163927	
19	41.845285714286	650.768938633597	1007.081650903440	602.835848204359	804.764799650530	1419.929134922688	383.266326746141	933.348162614430	1355.409760456916	526.913202896385	885.688928092072	1439.939123799125	707.565902142101	814.073562291661	1488.597548344912	536.545128627885	889.987970353156	930.782552239225	684.158596337694	840.563911744685	962.500517896321	414.516511436440	909.271967035528	725.737162095944	634.497975840202	828.924623026787	615.985010405817	698.242525646887	887.390006018292	565.384161854512	604.336779802936	879.973967412561	473.899453746315	606.426248585154	916.269340400040	772.541203965254	434.163773612623	858.628982354027	650.362301630519	352.145617117119	956.767476657553	585.988876634136	412.698633791195	975.257466223513	519.329705227413	407.353928513250	957.062861783336	448.237638189784	388.236719136521	886.982920757983	327.874702723154	319.911679908963	964.935658538569	217.742861100451	369.752254647270	836.343101450406	388.740487081305	613.032649271692	754.245207486068	293.566074682114	675.977330303694	773.388797524744	198.079848583303	605.274303702273	614.050096411757	44.739169440107	578.378275993396	787.692242474045	96.039643707792	610.326683909758	698.630677063860	37.454406455500	650.803972318928	906.591381323614	40.910051142299	637.401673074150	866.071897320312	43.133975032629	385.408986428700	948.107283975322	45.212443667695	313.675054813811	1022.546089726098	116.305052619302	344.377128037278	1156.075074291758	78.044615340738	329.998346671866	676.972626011923	1084.319957358547	307.859515789751	661.023004083644	826.979798402321	349.723182592265	1101.450051420693	1203.976741368601	837.066298996900	1322.471687344476	1297.030527165862	748.937229251767	
20	41.868357142857	650.910721670060	1007.333932720034	601.852872564884	802.756726562896	1420.028027317333	380.588157683164	933.151879664754	1355.161295326492	522.607810103454	887.767112537043	1439.567331634491	703.780276016372	814.016517539352	1488.529179333810	533.862566328152	890.716969228370	930.823126096586	680.705928794145	838.581644465651	961.721931067101	411.441480109155	907.307281150177	725.179722777215	631.955930758042	826.310276229977	616.343382205199	696.881420825881	883.241266915326	564.907442547201	602.716186045926	874.656510167965	473.881576654848	605.183964822312	913.052632224288	770.951523205610	430.323598570472	852.816194351886	648.833749022416	349.839993136869	951.457427945392	584.839985900365	409.381186949411	968.668262158724	519.535172126630	404.888198511280	954.080979748490	448.549262904384	386.479107123897	888.840312381349	324.517675819288	319.278159431700	971.533476138980	217.981112288057	370.213050276784	831.398683134032	388.833429321764	612.312443928830	749.459081447565	293.741956704336	675.662172534532	768.589695012349	198.107883610364	605.109644057649	609.312802508500	44.582859839238	578.490147397895	782.948428850583	95.996716973499	610.283689713109	693.942430486232	37.343784960098	650.904365926061	901.906137836110	40.962892259059	637.374873326803	879.260161294303	40.551532908831	387.072354926980	961.799941020513	43.624310458345	315.942324375561	1033.902293256017	117.261181569691	346.335611191529	1168.708608962497	82.359240172337	333.755460092951	674.843224351070	1084.264154468998	307.051496818136	660.562834058016	826.616397703242	349.013842524676	1109.761817199707	1208.973333742216	827.994272244935	1324.783151193908	1312.106977246680	736.962552661524	
21	41.891428571429	651.294257209469	1007.095311501814	600.130498963208	801.301121216888	1419.689274757626	377.388882089708	933.087292461284	1354.632741253539	518.177921781701	889.343861941747	1438.852627677962	699.700062175074	813.969795298444	1488.121768803160	530.667929983249	891.589317999846	930.679036099451	677.322708289177	837.377851998496	960.434008559815	408.327283135846	905.877796697415	724.459315975375	629.579382391628	824.128658295904	616.439323538984	695.362983856454	879.823404481601	564.232833750278	601.119420080446	870.109875118970	473.583550144119	603.876581822079	910.735254013136	768.779668832137	426.896549614230	847.910569868442	646.722570570333	348.000152285428	946.787732684533	582.969759829936	406.720016007437	962.454616683866	518.635586331489	402.934646278541	950.783417866050	447.823343604243	385.052674783905	889.074844140403	321.277240383018	319.077236338961	975.184233262181	217.694293763698	370.785448729283	827.049378455903	388.670992307521	611.466099403639	745.102927891220	293.821568805643	675.265747264732	764.013978491367	198.002722930252	604.889506102052	604.583184594059	44.435674160351	578.598641223722	778.211633447593	95.956053693524	610.258598211395	689.255108124568	37.229311355914	651.006409780951	897.226489116978	40.999268832984	637.354244248532	887.742846664125	38.823392632633	388.821959551211	970.499539052410	42.557610481767	317.955413593039	1040.998552081258	117.682401479679	348.146038089646	1176.517989121047	84.961088094319	336.532205394038	673.990777270742	1083.446835276747	305.553318190423	661.133291738518	825.515061144651	347.491497582100	1116.603518609897	1212.705669653984	818.645578148280	1325.774040486087	1324.528861417138	724.809834572427	
22	41.914500000000	651.880690305703	1006.476590273061	597.687792037541	800.403386682569	1418.990497032662	373.668880712437	933.183679265920	1353.901528613188	513.619275069444	890.482096153941	1437.906195304156	695.339279632158	813.966570531430	1487.458224493072	526.960455522364	892.588851521101	930.396557027813	673.994451346188	836.925446372076	958.784664110221	405.149951824151	904.934532115086	723.610341660789	627.320011748062	822.326425886690	616.323804271902	693.662760894014	877.083356607524	563.397026550393	599.518014720289	866.290344977875	473.040670782878	602.494110848466	909.350057478276	766.247324029793	423.845853887065	844.080498984324	644.247999524880	346.490597589871	942.939577741810	580.598484473584	404.584627864282	956.970011137003	516.891754291832	401.366472724938	947.506228858172	446.258347947874	383.871118519868	888.075762609762	318.167594292010	319.132894380336	976.373555177037	216.805670759134	371.386698364945	823.247559809215	388.295025775453	610.488744452059	741.133806865666	293.844169564779	674.777328035145	759.649696234372	197.797088422615	604.610491725422	599.869195974272	44.323022920248	578.698119123402	773.497237158272	95.926493117235	610.256084218939	684.574105193234	37.127560836183	651.103999170593	892.555452342717	41.011917159870	637.343476636067	891.968380773076	37.699231189417	390.536557146765	974.723538005461	41.702542240497	319.651319181180	1044.408964096042	117.325836591951	349.773075044811	1180.159398541908	85.539985008430	338.441285450401	674.299009463490	1082.027333757576	303.262779949453	662.599740305482	823.860433326548	345.088884563441	1122.078123511463	1215.323593803328	809.255861142872	1325.680578141570	1334.478671756016	712.635267887320	
23	41.937571428571	652.630697591185	1005.620124614405	594.572570593536	800.046247810224	1418.037289910143	369.453073976268	933.466352897455	1353.064070301501	508.927742297129	891.273503864248	1436.859187806082	690.715511512266	814.042763761212	1486.642443447593	522.758932487541	893.688965914117	930.031726165823	670.685208408421	837.160136082683	956.957567619832	401.876070900166	904.393308748865	722.680129012344	625.103846853863	820.830943940402	616.066970004212	691.757675611577	874.923702679678	562.452480109194	597.871127274734	863.108697038704	472.310401685920	601.021222650766	908.872483844085	763.609758816253	421.086069104048	841.439535004828	641.652441378679	345.135583302446	940.059287399133	577.985882411649	402.808190526783	952.520628786629	514.621431220893	400.043044011579	944.582814162120	444.123886368460	382.836581603954	886.333345122292	315.259240380701	319.243614139306	975.717679987523	215.367256545186	371.935009646029	819.913394576228	387.766931126069	609.376029213822	737.486998653129	293.860151438861	674.185424727263	755.473598354926	197.536563660664	604.269490229197	595.179593775797	44.278676289043	578.783391699497	768.821103327312	95.916786072585	610.275422887962	679.906161617387	37.062063158764	651.191180745589	887.895750616827	40.993574069528	637.345628964795	892.641222381377	37.012876488907	392.092673552255	975.261802999529	40.865314499156	320.993088161037	1044.894226156327	116.127967914912	351.192524627171	1180.484706866530	84.077069272703	339.669774531205	675.623839973817	1080.198197923703	300.118755178698	664.844568140040	821.852105316224	341.751575553058	1126.330742703133	1217.022445560013	800.026804697865	1324.759731389306	1342.203351395819	700.595489409182	
24	41.960642857143	653.508499331492	1004.682311641482	590.849882226813	800.192703956396	1416.952942117524	364.789786351613	933.953302556848	1352.225353930610	504.103341635266	891.825100086196	1435.847533308370	685.852084250886	814.232181568719	1485.788289303812	518.102071804222	894.852400235698	929.644766838917	667.343208454468	837.991904918483	955.150798475630	398.466915631899	904.145322585850	721.724820815087	622.845098756769	819.556594059243	615.751716549299	689.630285399355	873.217135872153	561.462603678843	596.134677949015	860.444244304563	471.467260620282	599.442040567859	909.234256765345	761.129455733229	418.503111058198	840.042080043834	639.173790768924	343.751947455865	938.247254317179	575.400192221103	401.217998136409	949.329876981022	512.153593178164	398.831889136423	942.299963073537	441.716452999470	381.854243070179	884.349997143606	312.657132103610	319.217836310910	973.859676129351	213.525481437068	372.361789177819	816.947508248329	387.162026399293	608.125966233931	734.086171582432	293.926785847170	673.478697182602	751.456321766520	197.275698669896	603.863890755859	590.524479479982	44.344948917145	578.849801579797	764.199402638286	95.935432468325	610.310427872711	675.259556085125	37.063292115754	651.262387090474	883.250124566094	40.937087661591	637.362878002236	890.599639492942	36.654499414822	393.391802695077	973.030791994887	39.962732489486	321.969451005623	1043.263443913975	114.190814883655	352.384190385510	1178.400832746420	80.840763860979	340.410757499955	677.802317113645	1078.167188946097	296.105871777865	667.763061599217	819.690776979262	337.447183843983	1129.538971182802	1218.024913416418	791.114556981501	1323.278515733506	1347.995182297787	688.836832178512	
